<?xml version="1.0" standalone="no"?>
<!DOCTYPE svg PUBLIC "-//W3C//DTD SVG 20010904//EN" "http://www.w3.org/TR/2001/REC-SVG-20010904/DTD/svg10.dtd">
<!-- Created using Krita: https://krita.org -->
<svg xmlns="http://www.w3.org/2000/svg" 
    xmlns:xlink="http://www.w3.org/1999/xlink"
    xmlns:krita="http://krita.org/namespaces/svg/krita"
    xmlns:sodipodi="http://sodipodi.sourceforge.net/DTD/sodipodi-0.dtd"
    width="126.96pt"
    height="40.8pt"
    viewBox="0 0 126.96 40.8">
<defs/>
<circle id="shape0" transform="matrix(0.828229444519791 -0.00225059527110993 0.00202170102784625 0.828230003248315 6.17156959658354 17.4733289550426)" r="5.60999363658982" cx="5.60999363658982" cy="5.60999363658982" fill="#49aeb9" fill-rule="evenodd" stroke="#000000" stroke-opacity="0" stroke-width="0" stroke-linecap="square" stroke-linejoin="bevel"/><path id="shape1" transform="matrix(0.888538652619374 -0.00241447693391654 0.00216891529173203 0.888539252032849 11.4639724441316 3.68087440270078)" fill="#6ad7e5" fill-rule="evenodd" stroke="#000000" stroke-opacity="0" stroke-width="0" stroke-linecap="square" stroke-linejoin="miter" stroke-miterlimit="1.91999995708466" d="M0 13.892L27.402 0.346L27.439 0.331L27.798 0.214L28.167 0.122L28.545 0.055L28.932 0.014L29.326 0L29.721 0.014L30.107 0.055L30.486 0.122L30.855 0.214L31.213 0.331L31.561 0.471L31.896 0.633L32.218 0.817L32.527 1.022L32.82 1.246L33.097 1.489L33.358 1.749L33.601 2.027L33.825 2.32L34.029 2.628L34.213 2.95L34.375 3.286L34.515 3.633L34.632 3.992L34.724 4.361L34.792 4.739L34.833 5.126L34.846 5.52L34.833 5.914L34.792 6.301L34.724 6.679L34.632 7.048L34.515 7.407L34.375 7.754L34.213 8.09L34.029 8.412L33.825 8.72L33.601 9.013L33.358 9.291L33.097 9.551L32.82 9.794L32.568 9.987L5.338 23.747L5.464 23.555L5.652 23.227L5.82 22.888L5.968 22.537L6.096 22.176L6.202 21.806L6.286 21.426L6.346 21.038L6.383 20.643L6.396 20.242L6.383 19.84L6.346 19.445L6.286 19.058L6.202 18.678L6.096 18.307L5.968 17.946L5.82 17.596L5.652 17.256L5.464 16.929L5.258 16.614L5.034 16.312L4.793 16.024L4.536 15.751L4.263 15.494L3.975 15.253L3.673 15.029L3.358 14.823L3.031 14.635L2.691 14.467L2.34 14.319L1.979 14.191L1.609 14.085L1.229 14.001L0.842 13.941L0.447 13.904L0.045 13.891L0 13.892"/><path id="shape2" transform="matrix(0.42680113440971 0.779207443602916 -0.779324343940812 0.427017086233987 43.5519352472296 11.3068973954914)" fill="#6ad7e5" fill-rule="evenodd" stroke="#000000" stroke-opacity="0" stroke-width="0" stroke-linecap="square" stroke-linejoin="miter" stroke-miterlimit="1.91999995708466" d="M1.03267 2.41476L3.50241 0C10.7912 3.38765 18.4152 6.97333 26.0597 10.5711L0 35.1913Z"/><text id="shape01" krita:useRichText="true" transform="matrix(1.00000000721115 0 0 1.00000000721115 55.1131516259204 27.1623550916706)" fill="#6ad9e5" stroke="#000000" stroke-opacity="0" stroke-width="0" stroke-linecap="square" stroke-linejoin="bevel" font-size="16" font-size-adjust="0.428571" font-stretch="normal" font-weight="200" letter-spacing="0" word-spacing="0"><tspan x="0">Papier</tspan></text>
</svg>
